<svg width="57.99999999999999" height="57.99999999999999" xmlns="http://www.w3.org/2000/svg">
 <!-- Created with Method Draw - http://github.com/duopixel/Method-Draw/ -->

 <g>
  <title>background</title>
  <rect x="-1" y="-1" width="60" height="60" id="canvas_background" fill="none"/>
 </g>
 <g>
  <title>Layer 1</title>
  <path opacity="0.5" id="svg_2" d="m29.103978,8.696972c-0.42434,0 -0.801871,0.174192 -1.12041,0.490162c-0.318269,0.31571 -0.581524,0.768097 -0.800588,1.333079c-0.438066,1.129807 -0.707538,2.716929 -0.854937,4.617654c-0.14711,1.897069 -0.171901,4.10603 -0.110784,6.470679c-5.241641,2.150344 -15.872664,6.590228 -16.726665,7.581561c-1.137004,1.319846 -0.76964,2.832464 -0.311457,3.836602l17.477084,-3.557165c0.369426,4.635594 0.894697,9.226906 1.352428,12.824551c-1.709153,0.500214 -4.899587,1.487905 -5.558132,2.100387c-0.907202,0.843744 -0.907195,3.568595 -0.907195,3.568595l7.153044,-0.581777c0.16847,1.174546 0.273828,1.859887 0.273828,1.859887l0.010453,0.061844l0.05644,0l0.131687,0l0.056439,0l0.010453,-0.061844c0,0 0.105158,-0.685353 0.273826,-1.859887l7.155135,0.581777c0,0 0.000008,-2.724851 -0.907196,-3.568595c-0.658791,-0.612718 -3.851554,-1.602649 -5.560223,-2.102692c0.456786,-3.586604 0.98113,-8.160347 1.35034,-12.781007l17.27224,3.515925c0.458178,-1.004138 0.827642,-2.516756 -0.309365,-3.836602c-0.843436,-0.979063 -11.217573,-5.320197 -16.523906,-7.49911c0.063401,-2.395297 0.040096,-4.634362 -0.108697,-6.553129l0,-0.004581c-0.147474,-1.898629 -0.417233,-3.484205 -0.854933,-4.613073c-0.219001,-0.564825 -0.480113,-1.017259 -0.798497,-1.333079c-0.318541,-0.31597 -0.696068,-0.490162 -1.120406,-0.490162l-0.000008,0.000001z" fill-opacity="null" stroke-opacity="null" stroke-width="1.5" stroke="#000" fill="#fff"/>
 </g>
</svg>