<svg width="500" height="500" xmlns="http://www.w3.org/2000/svg">
 <!-- Created with Method Draw - http://github.com/duopixel/Method-Draw/ -->
 <g>
  <title>background</title>
  <rect fill="none" id="canvas_background" height="502" width="502" y="-1" x="-1"/>
  <g display="none" overflow="visible" y="0" x="0" height="100%" width="100%" id="canvasGrid">
   <rect fill="url(#gridpattern)" stroke-width="0" y="0" x="0" height="100%" width="100%"/>
  </g>
 </g>
 <g>
  <title>Layer 1</title>
  <path id="svg_7" d="m236.755634,255.878225c0.003601,0.003574 0.011221,-0.003195 0.014923,-0.004032c-0.004167,-0.008125 0.011528,-0.047708 0.006111,-0.062083c-0.001667,-0.0325 -0.043854,-0.105862 -0.049167,-0.114375c0.002027,-0.005709 0.024739,-0.000396 0.024061,0.000422c-0.009478,0.011452 0.031984,0.077179 0.036772,0.115202c0.008823,-0.000732 0.020412,-0.005691 0.025556,0.0025c0.004803,-0.007872 0.041863,-0.068023 0.043889,-0.12c0.00029,-0.007448 0.020404,-0.002734 0.016621,0.001805c-0.006065,0.032361 -0.048835,0.12322 -0.052176,0.126528c0.003889,0.028333 0.002314,0.030275 0.027153,0.052306c0.011178,-0.039372 0.034996,-0.072794 0.056811,-0.106058c0.024632,-0.037349 0.041164,-0.073129 0.068298,-0.112009c0.03572,-0.049389 0.081338,-0.094455 0.123118,-0.121357c0.029065,-0.018714 0.077763,-0.034758 0.085228,-0.035808c0.01383,-0.002014 0.026337,-0.001656 0.04273,0.001997c0.024188,0.00539 0.047806,0.008401 0.073202,0.026282c0.023879,0.022949 0.015624,0.051711 0.011172,0.078652c-0.036778,0.060836 -0.074446,0.133696 -0.086309,0.208236c-0.003989,0.0276 -0.01116,0.075161 -0.028086,0.105037c-0.027211,0.045954 -0.060514,0.044255 -0.091804,0.050484c0.019066,0.008188 0.039744,0.034925 0.058296,0.061793c0.02894,0.042259 0.043041,0.085597 0.035568,0.132777c-0.001591,0.009896 -0.029184,0.084956 -0.042681,0.108508c-0.051226,0.089681 -0.120966,0.150502 -0.177175,0.140631c-0.020242,-0.003554 -0.076075,-0.067304 -0.086113,-0.086115c-0.02492,-0.046697 -0.045388,-0.103022 -0.04623,-0.152198c-0.003098,-0.004642 -0.006886,-0.004985 -0.005216,-0.011196c-0.003104,0.014222 -0.012961,0.060539 -0.027553,0.08982c-0.021096,0.042332 -0.040408,-0.020948 -0.048224,-0.072265c-0.00268,-0.017591 -0.000713,-0.020637 -0.003838,-0.031156c-0.014778,0.008411 -0.006997,0.032799 -0.012797,0.0525c-0.004917,0.017156 -0.026937,0.069557 -0.033018,0.081503c-0.019438,0.038186 -0.063086,0.09597 -0.09474,0.109836c-0.029379,0.012869 -0.054279,0.011063 -0.077891,-0.007102c-0.030455,-0.02343 -0.073375,-0.077845 -0.09978,-0.122091c-0.033427,-0.054747 -0.062642,-0.137002 -0.034836,-0.194941c0.017748,-0.036151 0.051156,-0.090025 0.083801,-0.103264c-0.023045,-0.004233 -0.074031,-0.027015 -0.092992,-0.090294c-0.006086,-0.020062 -0.008344,-0.051256 -0.009892,-0.073574c-0.002519,-0.036847 -0.013727,-0.079181 -0.023031,-0.115462c-0.007479,-0.03317 -0.020699,-0.075635 -0.034533,-0.111925c-0.014499,-0.038082 -0.026385,-0.101053 -0.001153,-0.132062c0.008814,-0.010833 0.036106,-0.023469 0.041809,-0.02437c0.019938,-0.003193 0.047101,0.011493 0.067265,0.020304c0.013211,0.00582 0.071176,0.036885 0.087206,0.053989c0.10568,0.112761 0.180826,0.25322 0.229646,0.382626z" fill-opacity="null" stroke-opacity="null" stroke-width="1.5" stroke="#fff" fill="#000"/>
  <path opacity="0.67" id="svg_18" d="m58.975961,475.748026c16.321367,-53.440402 38.660832,-98.698882 59.851228,-121.25501c22.702098,-24.165296 12.629955,-34.647429 -10.789109,-11.228313c-9.852693,9.852627 -12.667738,2.698539 -12.667738,-32.193547c0,-83.249738 43.15505,-134.762252 146.988402,-175.454137c87.858416,-34.431536 152.632508,-73.15202 179.489241,-107.294768l21.884912,-27.822267l0,48.407997c0,59.857213 -18.570664,150.286963 -39.12671,190.527301c-21.806288,42.687973 -96.550013,121.483665 -133.22797,140.450539c-32.860198,16.992767 -103.03905,21.995341 -140.546353,10.018643c-18.691431,-5.968405 -24.623505,-1.408241 -34.308427,26.373937c-6.440212,18.474404 -11.709507,44.757123 -11.709507,58.405827c0,15.495062 -6.214664,24.815765 -16.546047,24.815765c-12.270578,0 -14.671577,-6.137361 -9.291905,-23.751967l-0.000017,0z" fill-opacity="null" stroke-opacity="null" stroke-width="1.5" stroke="#fff" fill="#000"/>
 </g>
</svg>